<svg xmlns="http://www.w3.org/2000/svg" viewBox="0 0 64 64" fill="none">
  <defs>
    <linearGradient id="bg" x1="0" y1="0" x2="64" y2="64" gradientUnits="userSpaceOnUse">
      <stop offset="0%" stop-color="#2563EB"/>
      <stop offset="100%" stop-color="#4F46E5"/>
    </linearGradient>
  </defs>
  <!-- Rounded square background -->
  <rect width="64" height="64" rx="14" fill="url(#bg)"/>
  <!-- Compass rose (subtle, behind) -->
  <g opacity="0.35" stroke="#fff" stroke-width="1.5" fill="none" transform="translate(32,34)">
    <polygon points="0,-18 5,-5 0,-8 -5,-5"/>
    <polygon points="0,18 5,5 0,8 -5,5"/>
    <polygon points="-18,0 -5,-5 -8,0 -5,5"/>
    <polygon points="18,0 5,-5 8,0 5,5"/>
  </g>
  <!-- Main compass needle -->
  <g transform="translate(32,34) rotate(-45)">
    <polygon points="0,-16 3,0 0,2 -3,0" fill="#fff"/>
    <polygon points="0,16 3,0 0,-2 -3,0" fill="rgba(255,255,255,0.5)"/>
    <circle cx="0" cy="0" r="2.5" fill="#fff"/>
    <circle cx="0" cy="0" r="1" fill="#4F46E5"/>
  </g>
  <!-- Graduation cap -->
  <g transform="translate(32,12)">
    <polygon points="0,-4 12,2 0,8 -12,2" fill="#fff"/>
    <rect x="-1" y="2" width="2" height="6" fill="#fff" rx="0.5"/>
    <line x1="10" y1="3" x2="10" y2="10" stroke="#fff" stroke-width="1.5"/>
    <circle cx="10" cy="11" r="1.5" fill="#fff"/>
  </g>
</svg>
